<?xml version="1.0" encoding="utf-8"?>
<!-- Svg Vector Icons : http://www.onlinewebfonts.com/icon -->
<!DOCTYPE svg PUBLIC "-//W3C//DTD SVG 1.1//EN" "http://www.w3.org/Graphics/SVG/1.1/DTD/svg11.dtd">
<svg width="25" height="25" version="1.1" xmlns="http://www.w3.org/2000/svg" xmlns:xlink="http://www.w3.org/1999/xlink" x="0px" y="0px" viewBox="0 0 1000 1000" enable-background="new 0 0 1000 1000" xml:space="preserve">
<metadata> Svg Vector Icons : http://www.onlinewebfonts.com/icon </metadata>
<g>
<path d="M694.1,499.7c0,12.4,10,22.5,22.4,22.5h251.1c12.4,0,22.4-10.1,22.4-22.5c0-12.4-10-22.5-22.4-22.5H716.5C704.1,477.2,694.1,487.3,694.1,499.7L694.1,499.7z" stroke-width="5.81818"/>
<path d="M818.3,375.6v251.1c0,12.4,10.1,22.4,22.5,22.4c12.4,0,22.5-10,22.5-22.4l0-251.1c0-12.4-10.1-22.4-22.5-22.4C828.4,353.2,818.3,363.2,818.3,375.6L818.3,375.6z" stroke-width="5.81818"/>
<path d="M491.2,947.5H312.9c-169.2,0-302.9,0-302.9-87.8v-17.5c0-164.5,135.9-298.3,302.9-298.3h178.4c167,0,302.9,133.8,302.9,298.3v17.5C794.1,947.5,653.7,947.5,491.2,947.5L491.2,947.5L491.2,947.5z M311.2,593.4c-140.5,0-254.8,112.2-254.8,250.1v17.9c0,35.8,147.2,35.8,254.8,35.8h181.6c89,0,254.8,0,254.8-35.8v-17.9c0-137.9-114.3-250.1-254.8-250.1H311.2L311.2,593.4L311.2,593.4z M393.1,526.3c-132.6,0-240.4-106.3-240.4-236.9c0-130.6,107.8-236.9,240.4-236.9c132.6,0,240.4,106.3,240.4,236.9C633.5,420,525.7,526.3,393.1,526.3L393.1,526.3L393.1,526.3z M202.3,288.7c0,103.3,85.6,187.3,190.9,187.3C498.4,476,584,392,584,288.7c0-103.3-85.6-187.3-190.9-187.3C287.9,101.4,202.3,185.4,202.3,288.7L202.3,288.7L202.3,288.7z" stroke-width="5.81818"/>
</g>
</svg>